:version 1.10
:name ASF
:units
  mass 1
  length 1
  angle deg
:documentation
  ASF file generated by Kaydara
:root
  axis xyz
  order  tx ty tz rx ry rz
  position 0 0 0
  orientation 0 0 0
:bonedata
  begin
    id 1
    name lfemurDummy
    direction 0.61522 -0.761478 0.204097
    length 5.68318
    axis 0 -0 0 xyz
  end
  begin
    id 2
    name lfemur
    direction 0.34202 -0.939693 -5.84747e-008
    length 16.9147
    axis 0 -0 20 xyz
    dof rx ry rz
    limits( -inf , inf )
( -inf , inf )
( -inf , inf )

  end
  begin
    id 3
    name ltibia
    direction 0.34202 -0.939693 1.20839e-009
    length 18.0532
    axis 0 -0 20 xyz
    dof rz ry rx
    limits( -inf , inf )
( -inf , inf )
( -inf , inf )

  end
  begin
    id 4
    name lfoot
    direction 0.0841971 -0.23133 0.969225
    length 5.23822
    axis -90 7.62852e-016 20 xyz
    dof ry rx rz
    limits( -inf , inf )
( -inf , inf )
( -inf , inf )

  end
  begin
    id 5
    name ltoes
    direction 0 0 0
    length 0
    axis 0 0 0 xyz
    dof rz ry rx
    limits( -inf , inf )
( -inf , inf )
( -inf , inf )

  end
  begin
    id 6
    name rfemurDummy
    direction -0.625247 -0.75382 0.202044
    length 5.74091
    axis 0 -0 0 xyz
  end
  begin
    id 7
    name rfemur
    direction -0.34202 -0.939693 -1.47013e-008
    length 16.4922
    axis 0 -0 -20 xyz
    dof rx ry rz
    limits( -inf , inf )
( -inf , inf )
( -inf , inf )

  end
  begin
    id 8
    name rtibia
    direction -0.34202 -0.939693 -7.74345e-010
    length 18.2421
    axis 0 -0 -20 xyz
    dof rz ry rx
    limits( -inf , inf )
( -inf , inf )
( -inf , inf )

  end
  begin
    id 9
    name rfoot
    direction -0.124331 -0.341598 0.931586
    length 5.45787
    axis -90 -7.62852e-016 -20 xyz
    dof ry rx rz
    limits( -inf , inf )
( -inf , inf )
( -inf , inf )

  end
  begin
    id 10
    name rtoes
    direction 0 0 0
    length 0
    axis 0 0 0 xyz
    dof rz ry rx
    limits( -inf , inf )
( -inf , inf )
( -inf , inf )

  end
  begin
    id 11
    name lowerbackDummy
    direction 0 0 0
    length 0
    axis 0 -0 0 xyz
  end
  begin
    id 12
    name lowerback
    direction -0.0218484 0.994884 -0.0986304
    length 4.45607
    axis 0 -0 0 xyz
    dof rx ry rz
    limits( -inf , inf )
( -inf , inf )
( -inf , inf )

  end
  begin
    id 13
    name upperback
    direction -0.00973057 0.999717 -0.0217111
    length 4.47449
    axis 0 -0 0 xyz
    dof rx ry rz
    limits( -inf , inf )
( -inf , inf )
( -inf , inf )

  end
  begin
    id 14
    name thorax
    direction -0.000928171 0.999699 0.0245198
    length 4.50973
    axis 0 -0 0 xyz
    dof rx ry rz
    limits( -inf , inf )
( -inf , inf )
( -inf , inf )

  end
  begin
    id 15
    name rclavicle
    direction -0.9009 0.425937 -0.0834055
    length 7.28587
    axis 0 -0 0 xyz
    dof rx ry rz
    limits( -inf , inf )
( -inf , inf )
( -inf , inf )

  end
  begin
    id 16
    name rhumerus
    direction -1 -2.23604e-007 -1.42637e-007
    length 13.5704
    axis 180 30 90 xyz
    dof rx ry rz
    limits( -inf , inf )
( -inf , inf )
( -inf , inf )

  end
  begin
    id 17
    name rradius
    direction -1 5.68281e-008 -4.4952e-007
    length 8.06782
    axis 180 30 90 xyz
    dof rz ry rx
    limits( -inf , inf )
( -inf , inf )
( -inf , inf )

  end
  begin
    id 18
    name rwrist
    direction -1 1.51393e-007 1.38143e-007
    length 4.03391
    axis -90 -90 0 xyz
    dof rz rx ry
    limits( -inf , inf )
( -inf , inf )
( -inf , inf )

  end
  begin
    id 19
    name rthumb
    direction 0 0 0
    length 0
    axis 0 0 0 xyz
    dof ry rx rz
    limits( -inf , inf )
( -inf , inf )
( -inf , inf )

  end
  begin
    id 20
    name rhand
    direction -1 -3.34077e-007 -5.59631e-007
    length 1.29744
    axis -90 -90 0 xyz
    dof ry rx rz
    limits( -inf , inf )
( -inf , inf )
( -inf , inf )

  end
  begin
    id 21
    name rfingers
    direction 0 0 0
    length 0
    axis 0 0 0 xyz
    dof rz ry rx
    limits( -inf , inf )
( -inf , inf )
( -inf , inf )

  end
  begin
    id 22
    name lclavicle
    direction 0.940017 0.332249 -0.0773232
    length 8.29589
    axis 0 -0 0 xyz
    dof rx ry rz
    limits( -inf , inf )
( -inf , inf )
( -inf , inf )

  end
  begin
    id 23
    name lhumerus
    direction 1 7.41158e-008 -1.44768e-008
    length 12.0042
    axis 180 -30 -90 xyz
    dof rx ry rz
    limits( -inf , inf )
( -inf , inf )
( -inf , inf )

  end
  begin
    id 24
    name lradius
    direction 1 -1.32972e-007 3.10821e-007
    length 8.1902
    axis 180 -30 -90 xyz
    dof rz ry rx
    limits( -inf , inf )
( -inf , inf )
( -inf , inf )

  end
  begin
    id 25
    name lwrist
    direction 1 3.08957e-007 4.01394e-007
    length 4.09509
    axis -90 90 0 xyz
    dof rz rx ry
    limits( -inf , inf )
( -inf , inf )
( -inf , inf )

  end
  begin
    id 26
    name lthumb
    direction 0 0 0
    length 0
    axis 0 0 0 xyz
    dof ry rx rz
    limits( -inf , inf )
( -inf , inf )
( -inf , inf )

  end
  begin
    id 27
    name lhand
    direction 1 -1.64125e-007 -6.99514e-007
    length 1.37229
    axis -90 90 0 xyz
    dof ry rx rz
    limits( -inf , inf )
( -inf , inf )
( -inf , inf )

  end
  begin
    id 28
    name lfingers
    direction 0 0 0
    length 0
    axis 0 0 0 xyz
    dof rz ry rx
    limits( -inf , inf )
( -inf , inf )
( -inf , inf )

  end
  begin
    id 29
    name lowerneck
    direction -0.030798 0.998024 0.0547665
    length 3.93918
    axis 0 -0 0 xyz
    dof rx ry rz
    limits( -inf , inf )
( -inf , inf )
( -inf , inf )

  end
  begin
    id 30
    name upperneck
    direction 0.0531588 0.996611 -0.0627736
    length 3.95491
    axis 0 -0 0 xyz
    dof rx ry rz
    limits( -inf , inf )
( -inf , inf )
( -inf , inf )

  end
  begin
    id 31
    name head
    direction 0 0 0
    length 0
    axis 0 0 0 xyz
    dof rx ry rz
    limits( -inf , inf )
( -inf , inf )
( -inf , inf )

  end
:hierarchy
  begin
    root lfemurDummy rfemurDummy lowerbackDummy
    lfemurDummy lfemur
    lfemur ltibia
    ltibia lfoot
    lfoot ltoes
    rfemurDummy rfemur
    rfemur rtibia
    rtibia rfoot
    rfoot rtoes
    lowerbackDummy lowerback
    lowerback upperback
    upperback thorax
    thorax rclavicle lclavicle lowerneck
    rclavicle rhumerus
    rhumerus rradius
    rradius rwrist
    rwrist rthumb rhand
    rhand rfingers
    lclavicle lhumerus
    lhumerus lradius
    lradius lwrist
    lwrist lthumb lhand
    lhand lfingers
    lowerneck upperneck
    upperneck head
  end

:SAMPLES-PER-SECOND 30
:FULLY-SPECIFIED
:DEGREES
10
root  3.344200164 40.95088929 2.383466593 -7.263000488 -32.05999756 6.388977051
lowerback  8.959349632 1.221529961 -3.363310099
upperback  3.895960093 1.311779976 0.2770430148
thorax  -1.063249946 0.6049129963 2.048419952
lowerneck  -7.20235014 6.100629807 -4.516849995
upperneck  11.12139988 8.341219902 3.364219904
head  4.168439865 4.109149933 2.207230091
lclavicle  0 -9.442270133e-015 7.951389973e-016
lhumerus  1.238289952 -19.47529984 82.85600281
lradius  2.366857378e-031 -2.620463736e-031 132.0890045
lwrist  -7.062250077e-031 1.765562519e-031 7.94367981
lhand  -1.496451383e-031 -27.76390076 20.11240005
lfingers  90 7.125020027 -90
lthumb  89.89689403 5.08795885 91.16245106
rclavicle  0 -9.442270133e-015 7.951389973e-016
rhumerus  4.149310112 25.57509995 -80.32510376
rradius  -2.598040859e-031 2.391448878e-031 137.3710022
rwrist  7.062250077e-031 -0 -7.976399899
rhand  -7.920061211e-032 -33.2840004 9.303460121
rfingers  -90 -7.125020027 -90
rthumb  -92.93752616 -24.25625642 -97.11982154
rfemur  -15.2262001 10.98869991 6.461909771
rtibia  -0 0 63.1106987
rfoot  -0 -7.602719784 -10.59029961
rtoes  5.373923086 19.29304026 -105.8922705
lfemur  -21.80830002 -0.9441850185 -13.71370029
ltibia  -0 0 42.99860001
lfoot  4.413928936e-032 -0.1835030019 -2.279380083
ltoes  -4.250644065 -19.5611806 -102.515957
11
root  3.246599858 40.86799922 2.416777799 -7.195983887 -30.08200073 5.942016602
lowerback  8.773550034 1.159669995 -2.773200035
upperback  3.725830078 1.292099953 0.5483769774
thorax  -1.130970001 0.604016006 2.000390053
lowerneck  -7.296609879 5.928170204 -4.532929897
upperneck  11.57089996 8.143449783 3.13105011
head  4.339729786 3.991240025 2.146600008
lclavicle  0 -9.442270133e-015 7.951389973e-016
lhumerus  1.489369988 -19.67849922 82.91049957
lradius  2.330548556e-031 -2.652807468e-031 131.3000031
lwrist  -1.412450015e-030 -1.765562519e-031 7.730619907
lhand  -1.496451383e-031 -27.76390076 20.11240005
lfingers  90 7.125020027 -90
lthumb  89.89689403 5.08795885 91.16245106
rclavicle  0 -9.442270133e-015 7.951389973e-016
rhumerus  4.472819805 25.78289986 -80.11160278
rradius  -2.591226549e-031 2.398830758e-031 137.2079926
rwrist  1.412450015e-030 -0 -7.675290108
rhand  -7.920061211e-032 -33.2840004 9.303460121
rfingers  -90 -7.125020027 -90
rthumb  -92.93752616 -24.25625642 -97.11982154
rfemur  -14.39179993 11.61069965 6.838650227
rtibia  -0 0 62.54669952
rfoot  -0 -8.80134964 -12.36270046
rtoes  5.373923086 19.29304026 -105.8922705
lfemur  -22.00819969 0.1290159971 -14.10849953
ltibia  -0 0 43.98410034
lfoot  4.415007313e-032 -1.279610038 -1.537590027
ltoes  -4.250644065 -19.5611806 -102.515957
12
root  3.159288722 40.75177711 2.463511031 -7.218994141 -27.97000122 5.677001953
lowerback  8.555299759 1.07743001 -2.212440014
upperback  3.51699996 1.240990043 0.7597939968
thorax  -1.218050003 0.5872430205 1.909749985
lowerneck  -7.514560223 5.776269913 -4.522019863
upperneck  12.0862999 7.968400002 2.981139898
head  4.548319817 3.889480114 2.113389969
lclavicle  0 -9.442270133e-015 7.951389973e-016
lhumerus  1.838469982 -19.81329918 82.94550323
lradius  2.299602227e-031 -2.679677898e-031 130.6349945
lwrist  -7.062250077e-031 -1.765562519e-031 7.867060184
lhand  -1.496451383e-031 -27.76390076 20.11240005
lfingers  90 7.125020027 -90
lthumb  89.89689403 5.08795885 91.16245106
rclavicle  0 -9.442270133e-015 7.951389973e-016
rhumerus  4.648469925 25.91570091 -79.89459991
rradius  -2.586448596e-031 2.403981635e-031 137.0939941
rwrist  0 -1.765562519e-031 -7.343369961
rhand  -7.920061211e-032 -33.2840004 9.303460121
rfingers  -90 -7.125020027 -90
rthumb  -92.93752616 -24.25625642 -97.11982154
rfemur  -13.44830036 12.14439964 6.984280109
rtibia  -0 0 61.84989929
rfoot  -0 -10.12539959 -13.40299988
rtoes  5.373923086 19.29304026 -105.8922705
lfemur  -22.31100082 1.098500013 -14.73499966
ltibia  -0 0 45.18370056
lfoot  4.417307616e-032 -2.248589993 -0.4263280034
ltoes  -4.250644065 -19.5611806 -102.515957
13
root  3.077688931 40.60311205 2.52775564 -7.353027344 -25.80900574 5.5
lowerback  8.236680031 0.9665030241 -1.696799994
upperback  3.305819988 1.148249984 0.9908040166
thorax  -1.251420021 0.5475440025 1.869689941
lowerneck  -7.638850212 5.68667984 -4.568739891
upperneck  12.60459995 7.873370171 2.898400068
head  4.734159946 3.828020096 2.109499931
lclavicle  0 -9.442270133e-015 7.951389973e-016
lhumerus  2.232549906 -19.62330055 82.94059753
lradius  2.274764048e-031 -2.700794802e-031 130.1060028
lwrist  0 -0 8.609339714
lhand  -1.496451383e-031 -27.76390076 20.11240005
lfingers  90 7.125020027 -90
lthumb  89.89689403 5.08795885 91.16245106
rclavicle  0 -9.442270133e-015 7.951389973e-016
rhumerus  4.858449936 26.20359993 -79.66449738
rradius  -2.582669395e-031 2.408041286e-031 137.0039978
rwrist  1.412450015e-030 -1.765562519e-031 -7.446770191
rhand  -7.920061211e-032 -33.2840004 9.303460121
rfingers  -90 -7.125020027 -90
rthumb  -92.93752616 -24.25625642 -97.11982154
rfemur  -12.33950043 12.64420033 7.033520222
rtibia  -0 0 60.99829865
rfoot  -0 -11.23550034 -13.81459999
rtoes  5.373923086 19.29304026 -105.8922705
lfemur  -22.51049995 2.203850031 -15.56019974
ltibia  -0 0 46.5177002
lfoot  4.973157301e-032 -3.149739981 0.5344160199
ltoes  -4.250644065 -19.5611806 -102.515957
14
root  3.00211118 40.42222331 2.607866723 -7.603027344 -23.63800049 5.429992676
lowerback  7.999159813 0.8326309919 -1.355239987
upperback  2.912669897 1.01236999 1.356050014
thorax  -1.520799994 0.4878419936 2.067140102
lowerneck  -7.414549828 5.613220215 -5.021590233
upperneck  13.29290009 7.81619978 2.96329999
head  4.890620232 3.771430016 2.208019972
lclavicle  0 -9.442270133e-015 7.951389973e-016
lhumerus  2.164890051 -19.22839928 83.36190033
lradius  2.252200527e-031 -2.719639098e-031 129.6289978
lwrist  -7.062250077e-031 -0 9.286029816
lhand  -1.496451383e-031 -27.76390076 20.11240005
lfingers  90 7.125020027 -90
lthumb  89.89689403 5.08795885 91.16245106
rclavicle  0 -9.442270133e-015 7.951389973e-016
rhumerus  4.795869827 26.85050011 -79.4151001
rradius  -2.581366536e-031 2.409437869e-031 136.9730072
rwrist  7.062250077e-031 -0 -7.674729824
rhand  -7.920061211e-032 -33.2840004 9.303460121
rfingers  -90 -7.125020027 -90
rthumb  -92.93752616 -24.25625642 -97.11982154
rfemur  -11.08090019 13.13529968 6.963119984
rtibia  -0 0 60.00510025
rfoot  -0 -11.79959965 -13.75930023
rtoes  5.373923086 19.29304026 -105.8922705
lfemur  -22.53440094 3.437969923 -16.59449959
ltibia  -0 0 47.86809921
lfoot  4.977232412e-032 -3.910470009 0.5024710298
ltoes  -4.250644065 -19.5611806 -102.515957
